<svg width="930" height="818" viewBox="0 0 930 818" fill="none" xmlns="http://www.w3.org/2000/svg">
<path d="M31.2337 551.764C53.691 543.748 87.2478 536.267 118.481 536.267C164.429 536.267 206.762 556.038 197.211 635.658C190.5 691.499 164.17 741.462 94.7335 741.462C87.5059 741.462 78.9876 740.66 70.7275 739.057L61.4348 814.936H0L31.2337 551.764ZM76.6645 689.362C82.6015 690.965 87.7641 691.766 92.9267 691.766C117.191 691.766 131.13 670.125 135.26 635.391C139.39 603.062 130.872 585.161 108.414 585.161C102.994 585.161 96.2823 585.428 89.0547 587.566L76.6645 689.362Z" fill="#6078FF"/>
<path d="M277.748 645.01C273.359 682.949 290.138 693.369 315.693 693.369C329.374 693.369 351.056 691.499 370.158 683.751L369.384 729.706C344.345 737.187 320.855 741.462 301.237 741.462C246.772 741.462 208.827 714.744 218.894 632.987C224.831 582.489 256.065 536 318.79 536C375.837 536 392.615 571.268 387.453 614.017C386.42 624.704 383.839 633.788 379.709 644.743H277.748V645.01ZM283.685 612.681H336.085C337.892 595.581 333.762 579.55 314.66 579.55C291.687 579.55 284.717 600.925 283.685 612.681Z" fill="#6078FF"/>
<path d="M436.239 736.92L401.392 539.473H462.052L479.605 673.865L525.294 539.473H586.213L512.387 719.018C482.703 791.959 456.115 817.608 410.942 817.608C401.65 817.608 386.936 816.005 372.739 809.593L384.097 763.638C392.873 767.913 401.134 770.05 408.361 770.05C425.914 770.05 440.369 758.561 449.146 736.92H436.239Z" fill="#6078FF"/>
<path d="M621.834 736.92L586.987 539.473H647.647L665.2 673.865L710.889 539.473H771.808L697.983 719.018C668.298 791.959 641.71 817.608 596.538 817.608C587.245 817.608 572.532 816.005 558.334 809.593L569.692 763.638C578.469 767.913 586.729 770.05 593.956 770.05C611.509 770.05 625.964 758.561 634.741 736.92H621.834Z" fill="#6078FF"/>
<path d="M915.587 727.034C896.227 735.317 863.702 742.53 833.243 742.53C790.91 742.53 751.932 730.775 757.869 682.148C763.29 635.658 797.621 620.162 832.211 620.162C844.085 620.162 855.7 621.231 866.284 624.704L867.833 611.879C870.414 590.505 860.605 586.497 844.343 586.497C829.629 586.497 809.495 589.436 794.007 594.78L789.103 551.496C814.4 541.344 842.02 536 865.509 536C905.261 536 935.979 553.1 929.009 611.345L915.587 727.034ZM839.955 702.186C845.375 702.186 851.828 701.385 857.507 699.514L862.412 658.903C856.991 656.498 851.312 655.43 845.375 655.43C832.211 655.43 819.562 662.376 816.981 680.545C814.916 697.644 827.048 702.186 839.955 702.186Z" fill="#6078FF"/>
<path fill-rule="evenodd" clip-rule="evenodd" d="M453.998 438.66L400.699 409.749C388.115 402.896 377.606 392.793 370.27 380.495C362.935 368.198 359.042 354.158 359 339.844V217.011H468.998V429.722C469.049 431.499 468.626 433.258 467.769 434.817C466.913 436.376 465.655 437.678 464.126 438.59C462.598 439.501 460.853 439.988 459.072 440C457.291 440.012 455.54 439.55 453.998 438.66Z" fill="url(#paint0_linear_206_74)"/>
<path fill-rule="evenodd" clip-rule="evenodd" d="M523.246 285.867L382.8 320.82C359 326.862 359 336.848 359 336.848V135.122C359.003 112.853 366.46 91.2238 380.185 73.6723C393.91 56.1208 413.115 43.6542 434.749 38.2539L586.546 0.305537C588.046 -0.0739476 589.614 -0.100306 591.127 0.228535C592.64 0.557377 594.056 1.23244 595.262 2.20055C596.469 3.16867 597.435 4.4034 598.083 5.8075C598.731 7.2116 599.042 8.74672 598.995 10.292V189.149C598.958 211.392 591.486 232.987 577.764 250.508C564.042 268.029 544.856 280.473 523.246 285.867Z" fill="#6078FF"/>
<defs>
<linearGradient id="paint0_linear_206_74" x1="414.154" y1="217" x2="414.002" y2="440" gradientUnits="userSpaceOnUse">
<stop stop-color="#5969F9"/>
<stop offset="0.848958" stop-color="white" stop-opacity="0.6"/>
</linearGradient>
</defs>
</svg>
