<svg width="45" height="80" viewBox="0 0 45 80" fill="none" xmlns="http://www.w3.org/2000/svg">
<path d="M17.5295 79.6681L17.5319 79.6694C17.8002 79.8225 18.1052 79.9021 18.4153 79.9C18.7254 79.8978 19.0292 79.814 19.2954 79.6574C19.5615 79.5007 19.7803 79.2768 19.9292 79.0091C20.0781 78.7413 20.1517 78.4393 20.1427 78.1342L20.1426 78.1312L20.1427 39.5565H0.1V61.7897C0.107763 64.374 0.819075 66.9089 2.15967 69.1293C3.50027 71.3497 5.42096 73.1741 7.72105 74.4117L17.5295 79.6681ZM17.5295 79.6681L7.72119 74.4117L17.5295 79.6681Z" fill="url(#paint0_linear_319_2356)" stroke="#4958A9" stroke-width="0.2"/>
<path d="M0.1 60.6385V24.5677C0.100618 20.5414 1.46517 16.6306 3.97701 13.457C6.48887 10.2834 10.004 8.02896 13.9638 7.05235L13.9638 7.05235L41.8987 0.152635L41.8989 0.15257C42.1603 0.0872773 42.4334 0.0827407 42.6969 0.139322C42.9603 0.195903 43.2067 0.312034 43.4167 0.478473C43.6267 0.644908 43.7946 0.857084 43.9072 1.09822C44.0198 1.33935 44.0741 1.60291 44.0659 1.86816L44.0658 1.86816V1.87127V34.3905C44.0591 38.4122 42.6917 42.3167 40.1804 45.4848C37.669 48.6529 34.1573 50.9033 30.202 51.8788L4.3559 58.2338L4.35545 58.2339C2.15399 58.786 1.03905 59.5219 0.474098 60.132C0.304163 60.3155 0.184381 60.4872 0.1 60.6385Z" fill="url(#paint1_linear_319_2356)" stroke="#4958A9" stroke-width="0.2"/>
<defs>
<linearGradient id="paint0_linear_319_2356" x1="-4.32993e-07" y1="39" x2="20" y2="80" gradientUnits="userSpaceOnUse">
<stop offset="0.197917" stop-color="#12124B"/>
<stop offset="1" stop-color="#4D4EFF" stop-opacity="0.3"/>
</linearGradient>
<linearGradient id="paint1_linear_319_2356" x1="0" y1="30.6323" x2="44.1658" y2="30.6323" gradientUnits="userSpaceOnUse">
<stop stop-color="#8181FF"/>
<stop offset="0.859375" stop-color="#4D4EFF"/>
</linearGradient>
</defs>
</svg>
